<mxfile host="app.diagrams.net" agent="Mozilla/5.0 (Windows NT 10.0; Win64; x64) AppleWebKit/537.36 (KHTML, like Gecko) Chrome/138.0.0.0 Safari/537.36" version="27.1.6">
  <diagram name="Página-1" id="jci4QsL0_wLxANuexTLU">
    <mxGraphModel grid="1" page="1" gridSize="10" guides="1" tooltips="1" connect="1" arrows="1" fold="1" pageScale="1" pageWidth="827" pageHeight="1169" math="0" shadow="0">
      <root>
        <mxCell id="0" />
        <mxCell id="1" parent="0" />
        <mxCell id="IxMScBpadhmAz_A5qoVI-1" value="CU035 Solicitud Cambiar de documento" style="swimlane;childLayout=stackLayout;resizeParent=1;resizeParentMax=0;startSize=20;horizontal=0;horizontalStack=1;" vertex="1" parent="1">
          <mxGeometry x="220" y="120" width="970" height="860" as="geometry">
            <mxRectangle x="200" y="80" width="40" height="50" as="alternateBounds" />
          </mxGeometry>
        </mxCell>
        <mxCell id="IxMScBpadhmAz_A5qoVI-98" style="edgeStyle=orthogonalEdgeStyle;rounded=0;orthogonalLoop=1;jettySize=auto;html=1;entryX=1;entryY=0.5;entryDx=0;entryDy=0;exitX=0.5;exitY=1;exitDx=0;exitDy=0;" edge="1" parent="IxMScBpadhmAz_A5qoVI-1" source="IxMScBpadhmAz_A5qoVI-123" target="IxMScBpadhmAz_A5qoVI-97">
          <mxGeometry relative="1" as="geometry">
            <mxPoint x="610" y="150" as="sourcePoint" />
            <Array as="points">
              <mxPoint x="650" y="170" />
              <mxPoint x="300" y="170" />
              <mxPoint x="300" y="225" />
            </Array>
          </mxGeometry>
        </mxCell>
        <mxCell id="IxMScBpadhmAz_A5qoVI-4" value="Usuario" style="swimlane;startSize=20;" vertex="1" parent="IxMScBpadhmAz_A5qoVI-1">
          <mxGeometry x="20" width="320" height="860" as="geometry" />
        </mxCell>
        <mxCell id="IxMScBpadhmAz_A5qoVI-94" style="edgeStyle=orthogonalEdgeStyle;rounded=0;orthogonalLoop=1;jettySize=auto;html=1;exitX=0.5;exitY=1;exitDx=0;exitDy=0;entryX=0.5;entryY=0;entryDx=0;entryDy=0;" edge="1" parent="IxMScBpadhmAz_A5qoVI-4" source="IxMScBpadhmAz_A5qoVI-5" target="IxMScBpadhmAz_A5qoVI-93">
          <mxGeometry relative="1" as="geometry" />
        </mxCell>
        <mxCell id="IxMScBpadhmAz_A5qoVI-5" value="" style="ellipse;html=1;shape=startState;fillColor=#000000;strokeColor=#ff0000;fillStyle=auto;" vertex="1" parent="IxMScBpadhmAz_A5qoVI-4">
          <mxGeometry x="180" y="30" width="30" height="30" as="geometry" />
        </mxCell>
        <mxCell id="IxMScBpadhmAz_A5qoVI-93" value="Pulsar Botón &quot;ver perfil&quot;&amp;nbsp;" style="rounded=1;whiteSpace=wrap;html=1;arcSize=40;fontColor=#000000;fillColor=#ffffc0;strokeColor=#ff0000;" vertex="1" parent="IxMScBpadhmAz_A5qoVI-4">
          <mxGeometry x="135" y="100" width="120" height="50" as="geometry" />
        </mxCell>
        <mxCell id="IxMScBpadhmAz_A5qoVI-97" value="Pulsar botón &quot;Solicitud de cambio de Documento&quot;" style="rounded=1;whiteSpace=wrap;html=1;arcSize=40;fontColor=#000000;fillColor=#ffffc0;strokeColor=#ff0000;" vertex="1" parent="IxMScBpadhmAz_A5qoVI-4">
          <mxGeometry x="134" y="200" width="120" height="50" as="geometry" />
        </mxCell>
        <mxCell id="IxMScBpadhmAz_A5qoVI-124" value="Pulsar botón &quot;Enviar&quot;" style="rounded=1;whiteSpace=wrap;html=1;arcSize=40;fontColor=#000000;fillColor=#ffffc0;strokeColor=#ff0000;" vertex="1" parent="IxMScBpadhmAz_A5qoVI-4">
          <mxGeometry x="135" y="350" width="120" height="50" as="geometry" />
        </mxCell>
        <mxCell id="IxMScBpadhmAz_A5qoVI-117" style="edgeStyle=orthogonalEdgeStyle;rounded=0;orthogonalLoop=1;jettySize=auto;html=1;exitX=0.5;exitY=1;exitDx=0;exitDy=0;entryX=0;entryY=0.5;entryDx=0;entryDy=0;" edge="1" parent="IxMScBpadhmAz_A5qoVI-1" source="IxMScBpadhmAz_A5qoVI-97" target="IxMScBpadhmAz_A5qoVI-102">
          <mxGeometry relative="1" as="geometry">
            <Array as="points">
              <mxPoint x="214" y="305" />
              <mxPoint x="500" y="305" />
              <mxPoint x="500" y="225" />
            </Array>
          </mxGeometry>
        </mxCell>
        <mxCell id="IxMScBpadhmAz_A5qoVI-95" style="edgeStyle=orthogonalEdgeStyle;rounded=0;orthogonalLoop=1;jettySize=auto;html=1;exitX=1;exitY=0.75;exitDx=0;exitDy=0;entryX=0;entryY=0.5;entryDx=0;entryDy=0;" edge="1" parent="IxMScBpadhmAz_A5qoVI-1" source="IxMScBpadhmAz_A5qoVI-93" target="IxMScBpadhmAz_A5qoVI-123">
          <mxGeometry relative="1" as="geometry">
            <mxPoint x="529.9999999999998" y="130" as="targetPoint" />
          </mxGeometry>
        </mxCell>
        <mxCell id="IxMScBpadhmAz_A5qoVI-17" value="Sistema" style="swimlane;startSize=20;" vertex="1" parent="IxMScBpadhmAz_A5qoVI-1">
          <mxGeometry x="340" width="630" height="860" as="geometry" />
        </mxCell>
        <mxCell id="IxMScBpadhmAz_A5qoVI-19" value="" style="ellipse;html=1;shape=endState;fillColor=#000000;strokeColor=#ff0000;" vertex="1" parent="IxMScBpadhmAz_A5qoVI-17">
          <mxGeometry x="570" y="810" width="30" height="30" as="geometry" />
        </mxCell>
        <mxCell id="IxMScBpadhmAz_A5qoVI-20" style="edgeStyle=orthogonalEdgeStyle;rounded=0;orthogonalLoop=1;jettySize=auto;html=1;exitX=0.5;exitY=1;exitDx=0;exitDy=0;" edge="1" parent="IxMScBpadhmAz_A5qoVI-17">
          <mxGeometry relative="1" as="geometry">
            <mxPoint x="86" y="360" as="sourcePoint" />
            <mxPoint x="86" y="360" as="targetPoint" />
          </mxGeometry>
        </mxCell>
        <mxCell id="IxMScBpadhmAz_A5qoVI-122" style="edgeStyle=orthogonalEdgeStyle;rounded=0;orthogonalLoop=1;jettySize=auto;html=1;exitX=0.5;exitY=1;exitDx=0;exitDy=0;entryX=0.5;entryY=0;entryDx=0;entryDy=0;" edge="1" parent="IxMScBpadhmAz_A5qoVI-17" source="Y7S8jlvl7UqVXFa2-iLd-26" target="BK-sqGSsNcdn__YnTgii-2">
          <mxGeometry relative="1" as="geometry" />
        </mxCell>
        <mxCell id="IxMScBpadhmAz_A5qoVI-104" value="Actualiza el documento" style="rounded=1;whiteSpace=wrap;html=1;arcSize=40;fontColor=#000000;fillColor=#ffffc0;strokeColor=#ff0000;" vertex="1" parent="IxMScBpadhmAz_A5qoVI-17">
          <mxGeometry x="206" y="560" width="120" height="50" as="geometry" />
        </mxCell>
        <mxCell id="IxMScBpadhmAz_A5qoVI-102" value="Formulario solicitud cambio de documento" style="rounded=1;whiteSpace=wrap;html=1;arcSize=40;fontColor=#000000;fillColor=#ffffc0;strokeColor=#ff0000;" vertex="1" parent="IxMScBpadhmAz_A5qoVI-17">
          <mxGeometry x="180" y="200" width="120" height="50" as="geometry" />
        </mxCell>
        <mxCell id="IxMScBpadhmAz_A5qoVI-123" value="Apartado de su perfil" style="rounded=1;whiteSpace=wrap;html=1;arcSize=40;fontColor=#000000;fillColor=#ffffc0;strokeColor=#ff0000;" vertex="1" parent="IxMScBpadhmAz_A5qoVI-17">
          <mxGeometry x="250" y="60" width="120" height="50" as="geometry" />
        </mxCell>
        <mxCell id="Y7S8jlvl7UqVXFa2-iLd-4" style="edgeStyle=orthogonalEdgeStyle;rounded=0;orthogonalLoop=1;jettySize=auto;html=1;entryX=0.5;entryY=0;entryDx=0;entryDy=0;exitX=0.5;exitY=1;exitDx=0;exitDy=0;" edge="1" parent="IxMScBpadhmAz_A5qoVI-17" source="Y7S8jlvl7UqVXFa2-iLd-2" target="IxMScBpadhmAz_A5qoVI-104">
          <mxGeometry relative="1" as="geometry" />
        </mxCell>
        <mxCell id="Y7S8jlvl7UqVXFa2-iLd-5" value="si" style="edgeLabel;html=1;align=center;verticalAlign=middle;resizable=0;points=[];" connectable="0" vertex="1" parent="Y7S8jlvl7UqVXFa2-iLd-4">
          <mxGeometry x="-0.3704" relative="1" as="geometry">
            <mxPoint as="offset" />
          </mxGeometry>
        </mxCell>
        <mxCell id="Y7S8jlvl7UqVXFa2-iLd-7" style="edgeStyle=orthogonalEdgeStyle;rounded=0;orthogonalLoop=1;jettySize=auto;html=1;entryX=0.5;entryY=1;entryDx=0;entryDy=0;" edge="1" parent="IxMScBpadhmAz_A5qoVI-17" source="Y7S8jlvl7UqVXFa2-iLd-2" target="Y7S8jlvl7UqVXFa2-iLd-21">
          <mxGeometry relative="1" as="geometry">
            <Array as="points">
              <mxPoint x="420" y="443" />
              <mxPoint x="420" y="390" />
            </Array>
          </mxGeometry>
        </mxCell>
        <mxCell id="Y7S8jlvl7UqVXFa2-iLd-8" value="no" style="edgeLabel;html=1;align=center;verticalAlign=middle;resizable=0;points=[];" connectable="0" vertex="1" parent="Y7S8jlvl7UqVXFa2-iLd-7">
          <mxGeometry x="-0.8117" y="-5" relative="1" as="geometry">
            <mxPoint as="offset" />
          </mxGeometry>
        </mxCell>
        <mxCell id="Y7S8jlvl7UqVXFa2-iLd-2" value="¿Los campos están llenos?" style="rhombus;whiteSpace=wrap;html=1;fontColor=#000000;fillColor=#ffffc0;strokeColor=#ff0000;" vertex="1" parent="IxMScBpadhmAz_A5qoVI-17">
          <mxGeometry x="212" y="400" width="108" height="86" as="geometry" />
        </mxCell>
        <mxCell id="Y7S8jlvl7UqVXFa2-iLd-25" style="edgeStyle=orthogonalEdgeStyle;rounded=0;orthogonalLoop=1;jettySize=auto;html=1;entryX=0.5;entryY=0;entryDx=0;entryDy=0;" edge="1" parent="IxMScBpadhmAz_A5qoVI-17" source="Y7S8jlvl7UqVXFa2-iLd-21" target="IxMScBpadhmAz_A5qoVI-102">
          <mxGeometry relative="1" as="geometry">
            <Array as="points">
              <mxPoint x="420" y="180" />
              <mxPoint x="240" y="180" />
            </Array>
          </mxGeometry>
        </mxCell>
        <mxCell id="Y7S8jlvl7UqVXFa2-iLd-21" value="Muestra mensaje de error" style="rounded=1;whiteSpace=wrap;html=1;arcSize=40;fontColor=#000000;fillColor=#ffffc0;strokeColor=#ff0000;" vertex="1" parent="IxMScBpadhmAz_A5qoVI-17">
          <mxGeometry x="360" y="340" width="120" height="50" as="geometry" />
        </mxCell>
        <mxCell id="Y7S8jlvl7UqVXFa2-iLd-27" value="" style="edgeStyle=orthogonalEdgeStyle;rounded=0;orthogonalLoop=1;jettySize=auto;html=1;exitX=0.5;exitY=1;exitDx=0;exitDy=0;entryX=0.5;entryY=0;entryDx=0;entryDy=0;" edge="1" parent="IxMScBpadhmAz_A5qoVI-17" source="IxMScBpadhmAz_A5qoVI-104" target="Y7S8jlvl7UqVXFa2-iLd-26">
          <mxGeometry relative="1" as="geometry">
            <mxPoint x="830" y="710" as="sourcePoint" />
            <mxPoint x="1145" y="930" as="targetPoint" />
          </mxGeometry>
        </mxCell>
        <mxCell id="Y7S8jlvl7UqVXFa2-iLd-26" value="Muestra mensaje de éxito" style="rounded=1;whiteSpace=wrap;html=1;arcSize=40;fontColor=#000000;fillColor=#ffffc0;strokeColor=#ff0000;" vertex="1" parent="IxMScBpadhmAz_A5qoVI-17">
          <mxGeometry x="370" y="670" width="120" height="50" as="geometry" />
        </mxCell>
        <mxCell id="BK-sqGSsNcdn__YnTgii-3" style="edgeStyle=orthogonalEdgeStyle;rounded=0;orthogonalLoop=1;jettySize=auto;html=1;entryX=1;entryY=0.5;entryDx=0;entryDy=0;" edge="1" parent="IxMScBpadhmAz_A5qoVI-17" source="BK-sqGSsNcdn__YnTgii-2" target="IxMScBpadhmAz_A5qoVI-19">
          <mxGeometry relative="1" as="geometry">
            <Array as="points">
              <mxPoint x="610" y="825" />
            </Array>
          </mxGeometry>
        </mxCell>
        <mxCell id="BK-sqGSsNcdn__YnTgii-2" value="&lt;font style=&quot;vertical-align: inherit;&quot;&gt;&lt;font style=&quot;vertical-align: inherit;&quot;&gt;&lt;font style=&quot;vertical-align: inherit;&quot;&gt;&lt;font style=&quot;vertical-align: inherit;&quot;&gt;Notifica al administrador solicitud&lt;/font&gt;&lt;/font&gt;&lt;/font&gt;&lt;/font&gt;" style="rounded=1;whiteSpace=wrap;html=1;arcSize=40;fontColor=#000000;fillColor=#ffffc0;strokeColor=#ff0000;" vertex="1" parent="IxMScBpadhmAz_A5qoVI-17">
          <mxGeometry x="550" y="730" width="120" height="50" as="geometry" />
        </mxCell>
        <mxCell id="IxMScBpadhmAz_A5qoVI-127" style="edgeStyle=orthogonalEdgeStyle;rounded=0;orthogonalLoop=1;jettySize=auto;html=1;exitX=1;exitY=0.5;exitDx=0;exitDy=0;entryX=1;entryY=0.5;entryDx=0;entryDy=0;" edge="1" parent="IxMScBpadhmAz_A5qoVI-1" source="IxMScBpadhmAz_A5qoVI-102" target="IxMScBpadhmAz_A5qoVI-124">
          <mxGeometry relative="1" as="geometry">
            <mxPoint x="698" y="332" as="targetPoint" />
          </mxGeometry>
        </mxCell>
        <mxCell id="Y7S8jlvl7UqVXFa2-iLd-3" style="edgeStyle=orthogonalEdgeStyle;rounded=0;orthogonalLoop=1;jettySize=auto;html=1;entryX=0;entryY=0.5;entryDx=0;entryDy=0;" edge="1" parent="IxMScBpadhmAz_A5qoVI-1" source="IxMScBpadhmAz_A5qoVI-124" target="Y7S8jlvl7UqVXFa2-iLd-2">
          <mxGeometry relative="1" as="geometry">
            <Array as="points">
              <mxPoint x="215" y="443" />
            </Array>
          </mxGeometry>
        </mxCell>
        <mxCell id="BK-sqGSsNcdn__YnTgii-1" value="Administrador" style="swimlane;startSize=20;" vertex="1" parent="1">
          <mxGeometry x="1190" y="120" width="320" height="860" as="geometry" />
        </mxCell>
      </root>
    </mxGraphModel>
  </diagram>
</mxfile>
